<?xml version="1.0" encoding="utf-8"?>
<!-- Generator: Adobe Illustrator 26.4.1, SVG Export Plug-In . SVG Version: 6.00 Build 0)  -->
<svg version="1.1" id="Layer_1" xmlns="http://www.w3.org/2000/svg" xmlns:xlink="http://www.w3.org/1999/xlink" x="0px" y="0px"
	 viewBox="0 0 634 185" style="enable-background:new 0 0 634 185;" xml:space="preserve">
<style type="text/css">
	.st0{fill-rule:evenodd;clip-rule:evenodd;fill:#FFFFFF;}
	.st1{fill-rule:evenodd;clip-rule:evenodd;fill:#007AC0;}
	.st2{fill-rule:evenodd;clip-rule:evenodd;fill:#DD0822;}
</style>
<g id="branding-_x2F_-primary-_x2F_-box-solo">
	<rect id="Rectangle" y="0" class="st0" width="634" height="185"/>
	<path id="i" class="st1" d="M299.5,88.1c0-2.1-1-3.4-2.2-3.4c-2.9,0-5.2,4.2-8.7,12.6l-4.4-1.8c4.9-12.7,10.2-18.8,18.1-18.8
		c7.4,0,11.8,5.4,11.8,14.9c0,3.7-0.8,7.7-2,12.5l-2.5,9.9c-0.9,3.2-1.1,5.5-1.1,6.8c0,2.5,1.1,3.9,2.9,3.9c3.1,0,5.9-4.5,8.9-13.4
		l4.1,2.1c-3.5,13-9.4,19.5-18,19.5c-8,0-13-5.3-13-14.4c0-5,1.5-10.4,3-16.8l2-8.2C299,91.1,299.5,89.4,299.5,88.1 M304.3,54
		c5,0,8.8,3.9,8.8,8.9c0,4.9-3.9,8.9-8.8,8.9c-4.9,0-8.9-4-8.9-8.9C295.4,58,299.4,54,304.3,54"/>
	<path id="medibank" class="st2" d="M341,54v25.8c2.7-2.9,6.8-4.3,11.3-4.3c13.1,0,21.2,10.4,21.2,27.2c0,10.9-3.3,19.3-9.9,24.6
		c-3.6,2.9-7.3,4.2-11.7,4.2c-5,0-8.8-1.4-11.8-4.8c0,0-0.2,1.8-0.9,3.7h-11.8l0-19.5V54H341z M357,94c-1-4.6-4-6.8-7.6-6.8
		c-3.6,0-6.2,2.3-7.9,4.3v24.7c1.9,1.7,4.1,3.4,7.8,3.4c3.4,0,5.7-1.4,6.8-4.2c1.3-2.9,1.5-5.8,1.5-12.3
		C357.6,98.2,357.5,96.3,357,94L357,94z M269.2,130.4c-0.6-1.2-1-3.3-1-3.3c-3,2.5-7.8,4.7-11.9,4.7c-13.6,0-22.2-10.6-22.2-27.2
		c0-16.7,9.3-28.2,22.9-28.2c3.9,0,6.9,1,9.5,3V54h13.5v76.4H269.2z M266.4,91c-2.6-2.3-5.1-3.5-7.6-3.5c-6.3,0-9,5.2-9,17.2
		c0,11.5,2.4,15.2,9.7,15.2c2.6,0,5.5-1.8,6.9-3.4V91L266.4,91z M425.1,79.5l12.6-3.4c0.7,1,1.9,4,1.9,6.2c3.3-2.3,3.9-2.7,6.2-4
		c2.8-1.5,6.5-2.3,9.6-2.3c5.9,0,11.2,3.1,12.9,7.7c0.7,2,1,4.3,1,7.6v39.1h-13.8V95.6c0-6.1-1.1-7.8-4.7-7.8
		c-2.8,0-6.5,1.9-9.7,4.8v37.8h-14V91.7C427,83.3,425.7,80.7,425.1,79.5L425.1,79.5z M163.5,130.4V95.2c0-6.4-0.7-7.6-4.4-7.6
		c-2.6,0-6.2,1.8-9.3,4.5v38.4h-13.2V95.7c0-6.7-0.9-8.3-4.8-8.3c-2.6,0-6.2,1.4-9.2,4.1v38.9H109V93.2c0-7.7-0.5-11.1-2-13.7
		l12.6-3.4c0.9,1.5,1.3,2.7,1.9,5.4c3.6-3.6,8.1-5.4,13-5.4c4.4,0,8,1.5,10.9,4.4c0.7,0.7,1.4,1.7,2.1,2.6c4.9-5,9.3-7,15.1-7
		c4.2,0,8.1,1.3,10.5,3.4c3,2.6,4,5.7,4,13v38H163.5L163.5,130.4z M405.5,106.4h-0.6c-9.7,0-13.1,1.8-13.1,8.1c0,4.2,2.6,7,6.2,7
		c2.6,0,5.2-1.3,7.3-3.7L405.5,106.4z M406.9,126.5c-0.8,1.1-1.4,2-4.3,3.4c-1.4,0.7-4.5,1.9-7.9,1.9c-11.9,0-17.9-5.7-17.9-16.3
		c0-12.5,8.7-18.4,25.7-18.4c1,0,1.7,0,3.1,0.1V95c0-6-1.2-8-6.3-8c-4.5,0-9.7,2.2-15.5,6.1L378,83c3.4-2.2,4.9-2.9,8.6-4.4
		c5.2-2.2,9.8-3.1,14.6-3.1c9,0,15.2,3.3,17.3,9.3c0.7,2.2,0.9,3.9,0.9,9.6l-0.3,18c0,0.3,0,6.9,0,6.8c0,4.4,0.2,9,1.4,11.3h-12.3
		C407.6,129.5,406.9,126.5,406.9,126.5L406.9,126.5z M476.9,130.4h14V54h-14V130.4z M504.9,76.7h16.8l-16.6,23l20.5,30.7h-16.5
		l-18-30.3L504.9,76.7z M223.2,116.2l5.5,8.4c-6.2,5-12.6,7.4-20.2,7.4c-15.4,0-25.3-10.9-25.3-27.7c0-9.6,2-16,6.7-21.2
		c4.4-4.9,9.7-7.2,16.8-7.2c6.2,0,12,2.1,15.5,5.6c4.9,5,7.1,12.2,7.1,23.4v3.2h-30.9v0.4c0,8.2,4.1,13,11.3,13
		C214.4,121.6,218.9,119.8,223.2,116.2L223.2,116.2z M198.5,97.9h16.2v-0.6c0-4-0.4-6.1-1.7-8c-1.4-2.1-3.3-3.1-6.2-3.1
		c-5.3,0-8.4,4.2-8.4,11.6V97.9L198.5,97.9z"/>
</g>
</svg>
